<?xml version="1.0" encoding="utf-8"?>
<!-- Generator: Adobe Illustrator 16.0.0, SVG Export Plug-In . SVG Version: 6.00 Build 0)  -->
<!DOCTYPE svg PUBLIC "-//W3C//DTD SVG 1.1//EN" "http://www.w3.org/Graphics/SVG/1.1/DTD/svg11.dtd">
<svg version="1.1" id="Envelope" xmlns="http://www.w3.org/2000/svg" xmlns:xlink="http://www.w3.org/1999/xlink" x="0px" y="0px"
	 width="256px" height="256px" viewBox="0 0 256 256" enable-background="new 0 0 256 256" xml:space="preserve">
<g>
	<path fill-rule="evenodd" clip-rule="evenodd" fill="#FBFBFB" d="M149.281,255.076c14.349-1.423,28.374-4.145,41.771-9.672
		c1.072-0.45,1.538-0.962,1.528-2.221c-0.071-8.813-0.041-17.635-0.041-26.445v-1.576c-0.384,0.092-0.668,0.102-0.911,0.215
		c-15.744,7.328-32.319,11.36-49.624,12.557c-16.048,1.106-31.915,0.288-47.377-4.492c-21.969-6.785-38.604-20.141-49.229-40.692
		c-5.11-9.887-7.913-20.489-9.229-31.502c-1.478-12.342-1.285-24.674,0.779-36.966c3.531-21.093,12.659-39.423,27.18-55.082
		c12.841-13.846,28.192-23.621,46.679-27.837c21.666-4.933,43.199-4.329,63.881,4.34c21.412,8.965,35.013,25.361,42.087,47.272
		c3.339,10.347,4.31,21.052,4.036,31.88c-0.242,9.507-1.112,18.954-3.643,28.165c-2.104,7.665-5.019,14.963-10.24,21.103
		c-3.27,3.839-7.296,6.366-12.446,6.888c-4.301,0.441-7.741-1.279-9.836-5.096c-1.842-3.357-2.712-7.051-2.743-10.808
		c-0.06-7.687,0.011-15.383,0.426-23.059c0.507-9.477,1.325-18.944,2.166-28.4c1.143-12.752,2.429-25.494,3.653-38.236
		c0.091-0.911,0.15-1.821,0.231-2.825h-33.939c-0.506,5.118-1.012,10.183-1.518,15.25c-0.121,0.041-0.232,0.082-0.354,0.112
		c-0.183-0.317-0.405-0.624-0.527-0.972c-3.713-10.5-11.494-15.73-22.221-16.896c-17.668-1.915-32.219,4.4-44.19,17.224
		c-10.635,11.391-16.848,24.993-19.742,40.201c-1.943,10.193-2.509,20.479-1.72,30.826c0.85,11.114,3.37,21.769,9.724,31.144
		c10.079,14.85,24.286,20.848,41.914,18.943c14.511-1.565,23.902-10.09,30.034-22.792c0.87-1.801,1.548-3.685,2.357-5.506
		c0.172-0.379,0.557-0.675,0.84-1.003c0.172,0.398,0.466,0.799,0.506,1.218c0.83,9.088,4.776,16.446,12.112,21.912
		c5.263,3.919,11.273,5.925,17.749,6.355c22.667,1.515,40.982-7.071,55.474-24.286c9.633-11.442,15.351-24.768,18.093-39.361
		c3.521-18.76,3.359-37.509-1.498-56.044c-6.416-24.46-20.795-43.25-41.528-57.353c-14.905-10.132-31.48-16.018-49.21-18.75
		c-6.041-0.932-12.152-1.433-17.587-2.057l-17.333,0.123C50.731,3.565,1.735,64.879,0.55,126.368l-0.06,16.509
		c0.617,8.965,1.75,17.838,3.926,26.558c8.267,33.077,27.999,57.046,58.002,72.726c13.286,6.939,27.564,10.798,42.409,12.64
		 M149.929,118.989c-0.283,8.443-1.204,16.805-3.511,24.952c-1.993,7.03-4.716,13.743-9.604,19.322
		c-5.697,6.508-12.841,9.334-21.433,7.573c-5.869-1.208-9.603-5.28-12.335-10.347c-2.955-5.477-3.936-11.463-4.189-17.604
		c-0.051-1.26,0-2.527,0-3.797c-0.01-12.445,2.307-24.379,8.044-35.524c2.337-4.534,5.161-8.71,9.178-11.954
		c6.851-5.558,16.696-6.386,23.587-1.894c5.322,3.47,8.045,8.689,9.431,14.728C150.191,109.246,150.091,114.118,149.929,118.989z"/>
</g>
</svg>
