<?xml version="1.0" encoding="utf-8"?>
<!-- Generator: Adobe Illustrator 16.0.0, SVG Export Plug-In . SVG Version: 6.00 Build 0)  -->
<!DOCTYPE svg PUBLIC "-//W3C//DTD SVG 1.1//EN" "http://www.w3.org/Graphics/SVG/1.1/DTD/svg11.dtd">
<svg version="1.1" id="Envelope" xmlns="http://www.w3.org/2000/svg" xmlns:xlink="http://www.w3.org/1999/xlink" x="0px" y="0px"
	 width="256px" height="256px" viewBox="0 0 256 256" enable-background="new 0 0 256 256" xml:space="preserve">
<g>
	<path fill-rule="evenodd" clip-rule="evenodd" fill="#FFFFFF" stroke="#FFFFFF" stroke-miterlimit="10" d="M189.533,255.885
		c0-36.707,0-68.889,0-105.832c9.184,0,18.322,0,27.99,0c1.436-14.912,2.82-29.309,4.248-44.129
		c-1.887-0.111-3.264-0.262-4.641-0.264c-8.061-0.025-16.119,0.006-24.18-0.029c-1.607-0.008-3.633,0.432-3.576-2.279
		c0.229-10.902,0.02-21.836,0.822-32.697c0.619-8.365,5.314-12.096,13.631-12.33c5.066-0.145,10.143-0.117,15.209-0.027
		c2.729,0.049,3.939-0.805,3.902-3.807c-0.15-11.047-0.121-22.1-0.021-33.148c0.023-2.658-0.953-3.799-3.578-3.84
		c-9.738-0.15-19.561-1.262-29.191-0.346c-14.506,1.381-23.449,10.92-29.219,23.621c-4.527,9.965-6.035,20.623-6.17,31.477
		c-0.119,9.488-0.025,18.979-0.025,28.469c0,1.41,0,2.82,0,4.924c-3.971,0-7.563,0-11.156,0c-4.549,0.002-9.102,0.107-13.646-0.033
		c-2.557-0.08-3.426,0.92-3.41,3.41c0.068,12.48,0.092,24.963-0.021,37.439c-0.023,2.787,1.031,3.559,3.67,3.52
		c7.92-0.129,15.842-0.049,24.236-0.049c0.119,1.551,0.313,2.912,0.314,4.273c0.018,33.932-0.045,67.861,0.098,101.793"/>
</g>
</svg>
