<?xml version="1.0" encoding="utf-8"?>
<!-- Generator: Adobe Illustrator 16.0.0, SVG Export Plug-In . SVG Version: 6.00 Build 0)  -->
<!DOCTYPE svg PUBLIC "-//W3C//DTD SVG 1.1//EN" "http://www.w3.org/Graphics/SVG/1.1/DTD/svg11.dtd">
<svg version="1.1" id="Envelope" xmlns="http://www.w3.org/2000/svg" xmlns:xlink="http://www.w3.org/1999/xlink" x="0px" y="0px"
	 width="256px" height="256px" viewBox="0 0 256 256" enable-background="new 0 0 256 256" xml:space="preserve">
<g>
	<path fill-rule="evenodd" clip-rule="evenodd" fill="#FFFFFF" d="M95.767,226.438c0-44.192,0-88.188,0-132.298
		c0.635-0.031,1.199-0.082,1.763-0.082c13.842-0.005,27.684,0.026,41.526-0.042c1.718-0.008,2.113,0.508,2.085,2.088
		c-0.099,5.321-0.038,10.644-0.038,16.424c1.636-2.07,2.964-3.839,4.385-5.536c7.669-9.161,17.574-14.364,29.682-15.625
		c10.815-1.126,21.268,0.089,31.131,4.742c8.653,4.081,15.163,10.37,19.771,18.512c6.269,11.078,8.194,23.139,8.235,35.551
		c0.083,24.957,0.027,49.914,0.026,74.872c0,0.389-0.045,0.777-0.074,1.278c-15.066,0-30.094,0-45.391,0c0-0.762,0-1.464,0-2.166
		c0-22.49-0.003-44.979,0.001-67.47c0.001-5.914-0.455-11.768-2.539-17.392c-3.487-9.412-11.765-14.35-22.087-13.475
		c-11.417,0.968-18.43,7.247-21.968,17.285c-1.16,3.291-1.111,7.076-1.125,10.637c-0.09,23.499-0.047,46.999-0.047,70.498
		c0,2.194-0.002,2.196-2.24,2.196c-13.668,0.001-27.336,0.001-41.004,0.001C97.177,226.438,96.496,226.438,95.767,226.438z"/>
	<path fill-rule="evenodd" clip-rule="evenodd" fill="#FFFFFF" d="M70.339,226.438c-0.642,0-1.202,0-1.762,0
		c-13.836,0-27.672-0.026-41.508,0.035c-1.606,0.007-2.033-0.422-2.031-1.967c0.041-42.829,0.04-85.66,0.002-128.49
		c-0.001-1.496,0.342-2.008,2-2c13.835,0.066,27.672,0.037,41.508,0.041c0.563,0,1.126,0.051,1.791,0.083
		C70.339,138.253,70.339,182.231,70.339,226.438z"/>
	<path fill-rule="evenodd" clip-rule="evenodd" fill="#FFFFFF" d="M47.684,76.006c-8.957-0.157-16.604-2.952-21.656-10.541
		c-7.607-11.429-3.583-29.118,12.856-33.833c8.734-2.506,17.293-2.026,24.933,3.16c7.691,5.221,10.521,12.82,9.356,21.631
		c-1.159,8.765-6.352,14.808-14.946,17.766c-3.331,1.146-6.946,1.513-10.432,2.235C47.758,76.285,47.721,76.146,47.684,76.006z"/>
</g>
</svg>
