<?xml version="1.0" encoding="utf-8"?>
<!-- Generator: Adobe Illustrator 16.0.0, SVG Export Plug-In . SVG Version: 6.00 Build 0)  -->
<!DOCTYPE svg PUBLIC "-//W3C//DTD SVG 1.1//EN" "http://www.w3.org/Graphics/SVG/1.1/DTD/svg11.dtd">
<svg version="1.1" id="Layer_1" xmlns="http://www.w3.org/2000/svg" xmlns:xlink="http://www.w3.org/1999/xlink" x="0px" y="0px"
	 width="256px" height="256px" viewBox="0 0 256 256" enable-background="new 0 0 256 256" xml:space="preserve">
<g>
	<path fill="#E8E7FF" d="M15.037,15.949h38c2,0,3,1,3,3s-1,3-3,3h-12c-2.269,0-2.935,1-2,3l35.8,115.6
		c0.266,0.801,0.666,1.199,1.2,1.199c0.531,0,0.931-0.398,1.2-1.199l34.2-121.6c0.666-2,2-3,4-3s3.332,1,4,3l34,121.6
		c0.266,0.801,0.664,1.199,1.199,1.199c0.53,0,0.932-0.398,1.199-1.199l35.801-115.6c1.065-2,0.399-3-2-3h-12c-2,0-3-1-3-3s1-3,3-3
		h38c2,0,3,1,3,3s-1,3-3,3h-13c-2,0-3.335,1-4,3l-40.199,130c-0.535,2-1.801,3-3.801,3s-3.27-1-3.801-3l-34.2-122
		c-0.269-0.8-0.734-1.2-1.4-1.2c-0.669,0-1.135,0.4-1.4,1.2l-34,122c-0.668,2-1.934,3-3.8,3c-1.869,0-3.134-1-3.8-3l-40.2-130
		c-0.534-2-1.869-3-4-3h-13c-2,0-3-1-3-3S13.037,15.949,15.037,15.949z"/>
</g>
<g>
	<path fill="#E8E7FF" d="M105.336,232.271c0-2,1-3,3-3h14c2,0,3-1,3-3v-122c0-2-1-3-3-3h-14c-2,0-3-1-3-3s1-3,3-3h56
		c20.131,0,36.331,6.669,48.6,20c12.267,13.333,18.4,30,18.4,50s-6.135,36.67-18.4,50c-12.269,13.336-28.469,20-48.6,20h-56
		C106.336,235.271,105.336,234.271,105.336,232.271z M131.336,226.271c0,2,1,3,3,3h30c18.131,0,32.831-6.064,44.1-18.199
		c11.267-12.131,16.9-27.4,16.9-45.801c0-18.399-5.635-33.664-16.9-45.799c-11.269-12.131-25.969-18.2-44.1-18.2h-30c-2,0-3,1-3,3
		V226.271z"/>
</g>
</svg>
