<?xml version="1.0" encoding="utf-8"?>
<!-- Generator: Adobe Illustrator 16.0.0, SVG Export Plug-In . SVG Version: 6.00 Build 0)  -->
<!DOCTYPE svg PUBLIC "-//W3C//DTD SVG 1.1//EN" "http://www.w3.org/Graphics/SVG/1.1/DTD/svg11.dtd">
<svg version="1.1" id="Envelope" xmlns="http://www.w3.org/2000/svg" xmlns:xlink="http://www.w3.org/1999/xlink" x="0px" y="0px"
	 width="256px" height="256px" viewBox="0 0 256 256" enable-background="new 0 0 256 256" xml:space="preserve">
<g>
	<path fill-rule="evenodd" clip-rule="evenodd" fill="#FFFFFF" d="M77.37,187.286c-26.015-1.35-43.173-19.849-47.914-36.302
		c3.731,0.16,7.422,0.544,11.095,0.416c3.713-0.129,7.409-0.765,11.15-1.424c-25.618-7.962-39.369-25.049-40.885-51.901
		c7.337,3.209,14.703,5.779,23.396,5.857C22.84,95.674,15.495,85.294,12.546,72.08c-2.956-13.243-1.018-25.821,5.669-37.904
		c28.398,33.343,64.229,51.741,108.071,54.772c-0.339-3.361-0.783-6.373-0.925-9.399c-0.765-16.286,4.826-30.113,16.759-41.142
		c13.121-12.127,28.796-16.118,46.193-12.854c10.049,1.885,18.826,6.624,26.06,13.972c1.068,1.085,2.035,1.383,3.59,1.034
		c10.302-2.32,20.063-6.007,29.271-11.168c0.355-0.199,0.723-0.381,1.096-0.546c0.109-0.048,0.258-0.007,0.688-0.007
		c-3.952,11.875-11.347,20.898-21.501,27.918c9.872-0.736,19.107-3.717,28.668-7.585c-6.285,9.171-13.205,16.882-21.437,23.391
		c-0.213,0.169-0.413,0.366-0.649,0.493c-3.439,1.837-4.039,4.696-3.955,8.455c0.449,20.091-3.647,39.359-11.129,57.965
		c-5.835,14.51-13.651,27.854-23.528,39.954c-8.039,9.848-17.214,18.51-27.563,25.958c-11.482,8.264-23.914,14.639-37.275,19.146
		c-11.652,3.932-23.661,6.352-35.939,7.29c-14.82,1.132-29.57,0.544-44.129-2.534c-12.293-2.6-24.182-6.508-35.387-12.286
		c-4.69-2.418-9.304-4.985-13.869-7.757c13.688,0.949,27.11,0.122,40.271-3.64C54.728,201.851,66.742,195.919,77.37,187.286z"/>
</g>
</svg>
